<svg width="43" height="43" viewBox="0 0 43 43" fill="none" xmlns="http://www.w3.org/2000/svg">
<path d="M39.0682 17.9911H37.625V17.9167H21.5V25.0834H31.6256C30.1484 29.2553 26.1789 32.25 21.5 32.25C15.5633 32.25 10.75 27.4367 10.75 21.5C10.75 15.5634 15.5633 10.75 21.5 10.75C24.2404 10.75 26.7335 11.7838 28.6317 13.4725L33.6995 8.40475C30.4995 5.42252 26.2193 3.58337 21.5 3.58337C11.6055 3.58337 3.58334 11.6056 3.58334 21.5C3.58334 31.3945 11.6055 39.4167 21.5 39.4167C31.3945 39.4167 39.4167 31.3945 39.4167 21.5C39.4167 20.2987 39.293 19.1261 39.0682 17.9911Z" fill="#FFC107"/>
<path d="M5.64912 13.1607L11.5356 17.4777C13.1284 13.5343 16.9859 10.75 21.5 10.75C24.2404 10.75 26.7335 11.7838 28.6317 13.4725L33.6995 8.40475C30.4995 5.42252 26.2192 3.58337 21.5 3.58337C14.6182 3.58337 8.65017 7.4686 5.64912 13.1607Z" fill="#FF3D00"/>
<path d="M21.5 39.4167C26.1279 39.4167 30.3329 37.6456 33.5122 34.7655L27.967 30.0731C26.1078 31.4871 23.8358 32.2519 21.5 32.25C16.8399 32.25 12.883 29.2785 11.3923 25.1317L5.54969 29.6333C8.5149 35.4356 14.5367 39.4167 21.5 39.4167Z" fill="#4CAF50"/>
<path d="M39.0682 17.991H37.625V17.9166H21.5V25.0833H31.6256C30.919 27.0688 29.6461 28.8038 27.9643 30.074L27.967 30.0722L33.5122 34.7646C33.1199 35.1211 39.4167 30.4583 39.4167 21.5C39.4167 20.2986 39.293 19.126 39.0682 17.991Z" fill="#1976D2"/>
</svg>
