<svg width="74" height="86" viewBox="0 0 74 86" fill="none" xmlns="http://www.w3.org/2000/svg">
<path d="M39.4523 21.8846C46.3034 22.6176 62.4834 25.7711 72.3958 34.7027C76.9143 28.8459 73.8534 3.80986 37.1203 3.51416C37.1203 3.51416 33.0441 0 26.5836 0C17.7554 0 6.21703 13.1796 6.36338 29.7246C3.15697 29.7246 -0.273727 32.5083 0.017313 42.758C0.23041 50.2611 2.12839 65.2952 17.4233 73.1594V80.7096H9.80735C8.35298 80.7096 7.17431 81.8949 7.17431 83.3546C7.17431 84.8156 8.35298 86 9.80735 86H21.2408H25.7921H37.2252C38.6791 86 39.8582 84.8156 39.8582 83.3546C39.8582 81.8944 38.6791 80.7096 37.2252 80.7096H34.1228V77.8031C36.0349 78.0071 38.0494 78.1416 40.1812 78.1929C45.4286 80.9757 49.6553 87.5643 53.2999 85.6593C54.0304 85.2778 54.3807 82.4279 54.3422 78.1929H61.6576V78.192C63.2438 78.192 64.5282 76.8002 64.5282 75.0831C64.5282 73.3652 63.2438 71.9733 61.6576 71.9733C63.2438 71.9733 64.5282 70.5815 64.5282 68.8644C64.5282 67.1469 63.2438 65.755 61.6576 65.755H53.4782C51.3344 47.4137 45.1865 23.9041 34.7439 29.89C32.5644 28.2886 32.6009 21.1516 39.4523 21.8846ZM28.8568 80.7096H25.7921H22.6894V75.3784C24.5824 76.0218 26.635 76.5707 28.8568 77.0101V80.7096V80.7096Z" fill="#FBA216"/>
</svg>
